<?xml version="1.0" encoding="utf-8"?>
<!-- Generator: Adobe Illustrator 17.1.0, SVG Export Plug-In . SVG Version: 6.00 Build 0)  -->
<!DOCTYPE svg PUBLIC "-//W3C//DTD SVG 1.1//EN" "http://www.w3.org/Graphics/SVG/1.1/DTD/svg11.dtd">
<svg version="1.1" id="Your_Icon" xmlns="http://www.w3.org/2000/svg" xmlns:xlink="http://www.w3.org/1999/xlink" x="0px" y="0px"
	 viewBox="0 0 100 100" enable-background="new 0 0 100 100" xml:space="preserve">
<g>
	<path fill="#FFFFFF" d="M43,43.9c-1.3,0-2.3-1-2.3-2.3c0-1.3,1-2.3,2.3-2.3c1.3,0,2.3,1,2.3,2.3C45.4,42.9,44.3,43.9,43,43.9z
		 M43,40.9c-0.4,0-0.7,0.3-0.7,0.7c0,0.4,0.3,0.7,0.7,0.7c0.4,0,0.7-0.3,0.7-0.7C43.8,41.2,43.4,40.9,43,40.9z"/>
	<g>
		<path fill="#FFFFFF" d="M57.1,43.9c-1.3,0-2.3-1-2.3-2.3c0-1.3,1-2.3,2.3-2.3s2.3,1,2.3,2.3C59.5,42.9,58.4,43.9,57.1,43.9z
			 M57.1,40.9c-0.4,0-0.7,0.3-0.7,0.7c0,0.4,0.3,0.7,0.7,0.7s0.7-0.3,0.7-0.7C57.9,41.2,57.5,40.9,57.1,40.9z"/>
	</g>
	<path fill="#FFFFFF" d="M50,53.3c-2.3,0-3.5-0.8-3.6-0.9c-0.3-0.3-0.4-0.7-0.2-1.1s0.7-0.4,1.1-0.2c0,0,0.9,0.6,2.7,0.6
		c1.9,0,2.9-0.6,2.9-0.6c0.3-0.2,0.8-0.1,1.1,0.2c0.2,0.3,0.2,0.8-0.2,1.1C53.6,52.5,52.4,53.3,50,53.3z"/>
	<path fill="#FFFFFF" d="M69.7,44.9c2.5-0.8,5.6-2.4,5.5-6.4c-0.1-2-1.4-3.9-3.3-4.7c-1.8-0.7-3.7-0.4-5.3,0.7
		c-3.5-4.8-9.6-8-16.5-8c-6.9,0-13,3.2-16.6,8.1c-1.7-1.2-3.6-1.5-5.4-0.8c-1.9,0.8-3.3,2.7-3.3,4.7c-0.1,4.2,3.1,5.8,5.6,6.5
		c0.3,5.7,2.9,10.3,7.4,13.1c-2,4-3.7,9-5,14.9l3.1,0.7c1.3-5.6,2.9-10.3,4.8-14.1c2.7,1.1,5.9,1.8,9.4,1.8c3.5,0,6.7-0.7,9.4-1.8
		c1.9,3.7,3.5,8.3,4.9,13.9l3.1-0.7c-1.4-5.8-3.1-10.7-5.1-14.6C66.8,55.1,69.5,50.5,69.7,44.9z M70.6,36.7c0.8,0.3,1.3,1.1,1.4,1.9
		c0,1.3-0.4,2.2-2.5,3c-0.2-1.5-0.6-3-1.3-4.4C69,36.6,69.9,36.3,70.6,36.7z M28,38.5c0-0.8,0.6-1.5,1.4-1.9
		c0.8-0.3,1.7-0.1,2.5,0.6c-0.6,1.4-1,2.8-1.2,4.3C28.5,40.8,28,39.8,28,38.5z M33.6,44c0-7.9,7.4-14.4,16.5-14.4
		c9.1,0,16.5,6.5,16.5,14.4c0,8.5-6.5,14-16.5,14C39.9,58,33.6,52.7,33.6,44z"/>
	<path fill="#FFFFFF" d="M53,46c0.2-0.2,0.3-0.5,0.3-0.8c0-0.7-0.6-1.3-1.3-1.3c-0.7,0-1.3,0.6-1.3,1.3c0,0.1,0.1,0.2,0.1,0.3
		c-0.3,0-0.5-0.1-0.8-0.1c-0.2,0-0.4,0-0.5,0c0-0.1,0.1-0.2,0.1-0.3c0-0.7-0.6-1.3-1.3-1.3c-0.7,0-1.3,0.6-1.3,1.3
		c0,0.3,0.1,0.5,0.3,0.7c-2.7,0.9-4.6,3-4.6,5.4c0,3.2,3.3,5.8,7.4,5.8s7.4-2.6,7.4-5.8C57.3,48.9,55.5,46.9,53,46z M49.9,55.6
		c-3.2,0-5.9-1.9-5.9-4.3s2.6-4.3,5.9-4.3s5.9,1.9,5.9,4.3S53.2,55.6,49.9,55.6z"/>
</g>
</svg>
